PathFileType	4	(X/Y/Z)	Walk10.trc
DataRate	CameraRate	NumFrames	NumMarkers	Units	OrigDataRate	OrigDataStartFrame	OrigNumFrames
200.000000	200.000000	6	59	mm	200.000000	431	589
Frame#	Times		CLAV		RASI		RACR1		RUA1		RFA1		RWRU		LACR1		LFA1		LCAR		RTH3		RTH2		LTH4		LLFC		LTB1		LTB3		STRN		LTB4		LASI		RElbow		RTH1		RLFC		LTH2		LTH3		LToe		LTH1		LWRR		RBack		C7		RCAR		LTB2		LMT1		RTH4		LFHD		RWRR		LMMAL		T10		LMT5		RFHD		LLMAL		RBHD		RPSI		LPSI		LUA1		RTB2		LBHD		RTB4		LElbow		RTB1		RMT1		RElbowM		RTB3		RToe		RCAL		LElbowM		LCAL		LWRU		RMMAL		RLMAL		RMT5
			X1	Y1	Z1	X2	Y2	Z2	X3	Y3	Z3	X4	Y4	Z4	X5	Y5	Z5	X6	Y6	Z6	X7	Y7	Z7	X8	Y8	Z8	X9	Y9	Z9	X10	Y10	Z10	X11	Y11	Z11	X12	Y12	Z12	X13	Y13	Z13	X14	Y14	Z14	X15	Y15	Z15	X16	Y16	Z16	X17	Y17	Z17	X18	Y18	Z18	X19	Y19	Z19	X20	Y20	Z20	X21	Y21	Z21	X22	Y22	Z22	X23	Y23	Z23	X24	Y24	Z24	X25	Y25	Z25	X26	Y26	Z26	X27	Y27	Z27	X28	Y28	Z28	X29	Y29	Z29	X30	Y30	Z30	X31	Y31	Z31	X32	Y32	Z32	X33	Y33	Z33	X34	Y34	Z34	X35	Y35	Z35	X36	Y36	Z36	X37	Y37	Z37	X38	Y38	Z38	X39	Y39	Z39	X40	Y40	Z40	X41	Y41	Z41	X42	Y42	Z42	X43	Y43	Z43	X44	Y44	Z44	X45	Y45	Z45	X46	Y46	Z46	X47	Y47	Z47	X48	Y48	Z48	X49	Y49	Z49	X50	Y50	Z50	X51	Y51	Z51	X52	Y52	Z52	X53	Y53	Z53	X54	Y54	Z54	X55	Y55	Z55	X56	Y56	Z56	X57	Y57	Z57	X58	Y58	Z58	X59	Y59	Z59

431	2.155	260.78	1353.8	0.84448	301.8	958.07	140.96	217.68	1359.9	176.53	210.31	1146.7	235.13	271.73	906.31	251.27	258.91	794.33	263.81	190.57	1369.7	-164.73	219.28	929.29	-250.78	260.35	775.14	-259	240	572.16	141.04	295.64	680.02	137.25	241.25	649.25	-153.81	273.62	468.62	-132.02	247.03	368.9	-59.358	106.98	243.68	-63.33	343.15	1130.5	-4.4724	176.09	304.28	-65.427	279.08	950.13	-133.39	193.75	1039.2	257.22	220.17	755.42	185.05	244.45	467.19	125.71	311.19	671.31	-129.74	268.49	564.42	-141.99	116.27	45.446	-93.976	213.22	742.17	-161.88	257.28	816.92	-214.8	98.564	1318.7	109.57	133.1	1426.8	12.699	310.82	761.79	255.14	158.57	326.5	-132.12	92.29	71.185	-67.109	229.17	663.96	161.58	295.17	1598	-21.975	304.53	808.68	206.76	24.512	187.93	-30.195	105.14	1143.1	12.416	47.587	78.046	-129.83	300.63	1599.7	51.015	0.3609	188.39	-109.69	130.78	1554.5	85.396	84.053	989.19	80.773	73.617	977.63	-33.664	166.76	1164	-217.63	230.29	255.34	112.31	126.72	1562.3	-42.305	239.41	254.14	41.132	149.43	1044.7	-234.72	260.4	344.59	46.106	320.6	38.956	40.199	167.09	1018.8	177.86	218.6	164.52	35.536	361.84	29.232	75.796	117.59	28.47	31.832	138.38	1027	-164.26	-54.052	197.99	-54.4	205.63	809.11	-264.59	183.17	78.014	3.341	163.26	62.117	80.774	271.87	20.578	122.55
432	2.16	265.94	1354.4	1.1673	307.02	958.96	141.38	222.91	1360.7	176.87	216.22	1147.7	235.85	279.79	907.91	251.51	268.22	795.74	263.74	195.66	1370.3	-164.41	222.12	929.43	-250.27	261.61	774.76	-258.7	242.65	572.41	141.2	299.43	679.66	137.15	248.37	650.62	-153.73	282.03	470.04	-131.55	257.43	369.77	-58.884	119.74	241.98	-62.445	348.29	1131.3	-3.9685	187.67	303.86	-64.755	284.64	951.05	-132.85	200.49	1040.1	258.05	224.98	755.89	185.21	245.96	467.28	125.9	317.98	673.25	-129.55	276.21	565.99	-141.76	133.71	44.74	-93.391	219.49	743.29	-161.76	259.12	816.62	-214.51	103.78	1319.5	110.06	138.33	1427.5	13.034	320.59	763.94	254.97	169.45	325.83	-131.3	109.14	69.885	-66.402	232.85	664.34	161.6	300.67	1598.5	-21.681	313.56	810.79	206.66	38.444	184.56	-29.048	110.28	1143.8	12.91	64.082	75.702	-128.96	306.13	1600.2	51.307	14.132	184.58	-108.46	136.21	1555.2	85.688	89.243	989.8	81.089	78.872	978.25	-33.349	171.28	1164.5	-217	230.91	255.36	112.44	132.18	1563	-42.022	240.09	254.14	41.279	153.34	1045.4	-233.93	261.42	344.52	46.31	320.61	38.981	40.28	173.55	1019.5	178.95	219.02	164.61	35.616	361.87	29.211	75.853	117.67	28.767	31.77	142.37	1027.8	-163.45	-40.516	192.7	-52.992	207.29	809.37	-264.21	183.35	78.236	3.3576	163.36	62.37	80.745	271.86	20.574	122.58
433	2.165	271.08	1355	1.4742	312.24	959.79	141.74	228.12	1361.6	177.19	222.12	1148.6	236.56	287.82	909.49	251.75	277.49	797.15	263.64	200.74	1370.9	-164.1	224.94	929.55	-249.78	262.85	774.38	-258.42	245.29	572.65	141.35	303.18	679.28	137.07	255.42	651.95	-153.66	290.31	471.41	-131.08	267.78	370.61	-58.416	132.6	240.17	-61.59	353.41	1132.1	-3.4633	199.28	303.36	-64.101	290.24	951.92	-132.27	207.21	1040.9	258.86	229.73	756.33	185.35	247.48	467.36	126.08	324.7	675.13	-129.34	283.84	567.52	-141.53	151.33	44.007	-92.886	225.71	744.38	-161.66	260.97	816.31	-214.24	108.98	1320.2	110.53	143.55	1428.1	13.35	330.3	766.09	254.78	180.34	325.06	-130.49	126.18	68.541	-65.782	236.49	664.68	161.6	306.16	1598.9	-21.41	322.55	812.89	206.55	52.568	181.02	-27.947	115.41	1144.4	13.388	80.774	73.275	-128.15	311.61	1600.7	51.577	28.091	180.6	-107.27	141.63	1556	85.961	94.428	990.36	81.4	84.109	978.84	-33.038	175.81	1165	-216.4	231.54	255.38	112.56	137.62	1563.7	-41.759	240.8	254.15	41.417	157.24	1046	-233.15	262.46	344.46	46.503	320.62	39.006	40.36	180.03	1020.2	180.01	219.46	164.7	35.689	361.91	29.191	75.909	117.75	29.074	31.706	146.34	1028.5	-162.66	-26.739	187.18	-51.613	208.93	809.6	-263.83	183.54	78.469	3.3671	163.47	62.631	80.713	271.86	20.574	122.62
434	2.17	276.2	1355.5	1.7655	317.47	960.57	142.04	233.32	1362.4	177.49	228	1149.4	237.24	295.81	911.05	251.98	286.73	798.54	263.51	205.82	1371.3	-163.81	227.76	929.64	-249.31	264.09	773.99	-258.16	247.92	572.87	141.49	306.91	678.9	137.01	262.38	653.24	-153.6	298.47	472.72	-130.6	278.07	371.39	-57.954	145.56	238.26	-60.766	358.51	1132.8	-2.9589	210.93	302.78	-63.466	295.88	952.74	-131.67	213.91	1041.7	259.65	234.4	756.73	185.47	249.02	467.45	126.25	331.34	676.95	-129.11	291.38	569.02	-141.3	169.13	43.262	-92.476	231.89	745.43	-161.58	262.81	815.98	-214	114.17	1320.9	110.97	148.76	1428.7	13.646	339.96	768.22	254.57	191.25	324.2	-129.69	143.4	67.165	-65.259	240.1	664.97	161.58	311.64	1599.3	-21.161	331.51	814.98	206.44	66.89	177.34	-26.892	120.54	1144.9	13.85	97.653	70.781	-127.42	317.09	1601.1	51.824	42.238	176.47	-106.12	147.04	1556.6	86.213	99.61	990.89	81.705	89.333	979.38	-32.731	180.32	1165.4	-215.83	232.2	255.41	112.66	143.05	1564.4	-41.516	241.52	254.17	41.546	161.13	1046.6	-232.38	263.52	344.39	46.685	320.64	39.029	40.439	186.53	1020.8	181.03	219.9	164.8	35.755	361.94	29.172	75.964	117.84	29.393	31.638	150.31	1029.2	-161.88	-12.711	181.45	-50.262	210.57	809.82	-263.46	183.75	78.712	3.3692	163.58	62.899	80.678	271.86	20.578	122.66
435	2.175	281.31	1356	2.0413	322.7	961.28	142.3	238.5	1363.1	177.78	233.88	1150.3	237.91	303.78	912.59	252.2	295.94	799.92	263.36	210.88	1371.8	-163.54	230.57	929.71	-248.86	265.32	773.59	-257.91	250.55	573.06	141.63	310.6	678.51	136.97	269.26	654.48	-153.54	306.51	473.96	-130.11	288.3	372.13	-57.499	158.63	236.25	-59.973	363.6	1133.4	-2.4579	222.62	302.14	-62.85	301.53	953.49	-131.04	220.6	1042.5	260.41	238.98	757.09	185.58	250.6	467.53	126.42	337.9	678.71	-128.87	298.82	570.46	-141.07	187.09	42.52	-92.174	238.02	746.44	-161.52	264.67	815.64	-213.77	119.33	1321.5	111.39	153.94	1429.2	13.924	349.56	770.34	254.34	202.18	323.23	-128.91	160.8	65.766	-64.842	243.69	665.21	161.55	317.1	1599.7	-20.934	340.43	817.06	206.31	81.417	173.51	-25.886	125.66	1145.4	14.295	114.71	68.236	-126.77	322.55	1601.5	52.049	56.573	172.2	-105	152.43	1557.3	86.446	104.79	991.37	82.003	94.545	979.89	-32.431	184.82	1165.8	-215.28	232.88	255.43	112.77	148.47	1565	-41.291	242.27	254.18	41.666	165.02	1047.1	-231.62	264.61	344.33	46.856	320.66	39.051	40.516	193.05	1021.4	182.02	220.36	164.9	35.815	361.98	29.153	76.02	117.94	29.726	31.568	154.27	1029.9	-161.13	1.5755	175.53	-48.936	212.2	810.01	-263.08	183.97	78.965	3.3634	163.7	63.17	80.643	271.86	20.585	122.69
436	2.18	286.41	1356.5	2.3019	327.94	961.91	142.53	243.66	1363.8	178.04	239.74	1151	238.55	311.7	914.09	252.42	305.11	801.28	263.17	215.92	1372.2	-163.28	233.37	929.74	-248.44	266.56	773.18	-257.69	253.2	573.23	141.75	314.26	678.12	136.95	276.04	655.67	-153.49	314.42	475.14	-129.62	298.45	372.82	-57.055	171.8	234.15	-59.212	368.68	1134.1	-1.963	234.33	301.43	-62.255	307.2	954.19	-130.39	227.27	1043.2	261.15	243.46	757.4	185.69	252.23	467.6	126.58	344.39	680.4	-128.62	306.17	571.86	-140.84	205.19	41.796	-91.994	244.1	747.39	-161.48	266.53	815.28	-213.56	124.48	1322.1	111.79	159.11	1429.7	14.182	359.1	772.43	254.09	213.11	322.17	-128.14	178.35	64.353	-64.54	247.25	665.4	161.51	322.55	1600	-20.729	349.32	819.13	206.18	96.152	169.57	-24.93	130.77	1145.9	14.723	131.93	65.659	-126.22	328	1601.8	52.251	71.098	167.8	-103.92	157.82	1557.9	86.661	109.96	991.8	82.29	99.748	980.35	-32.141	189.32	1166.2	-214.76	233.6	255.46	112.86	153.87	1565.6	-41.084	243.05	254.19	41.776	168.9	1047.6	-230.88	265.73	344.26	47.017	320.68	39.072	40.592	199.59	1022	182.98	220.83	165	35.869	362.03	29.134	76.076	118.04	30.075	31.495	158.24	1030.5	-160.4	16.128	169.44	-47.635	213.83	810.18	-262.71	184.21	79.228	3.3497	163.84	63.445	80.608	271.86	20.596	122.72
